<svg xmlns="http://www.w3.org/2000/svg" width="250" height="103" fill="none" viewBox="0 0 250 103"><path fill="#e5ae00" d="M146.493 100.104c0 1.112-.932 2.039-2.088 2.039h-38.516a2.04 2.04 0 0 1-2.051-2.039v-5.97c0-1.149.895-2.038 2.051-2.038h38.554c1.118 0 2.088.89 2.088 2.039v5.969z"/><path fill="#8cb75c" d="M199.962.185v35.222c3.169-2.632 8.203-3.485 16.107-4.004V15.535h12.566C235.272 15.237 250 13.272 250 .184zM241.387 30.995h-3.356c-9.433.222-36.578 2.558-38.069 22.987v17.722h5.406c9.658-.186 10.702-10.048 10.702-14.274V45.306h6.189c12.677 0 19.128-3.707 19.128-11.011z"/><path fill="#6cb3ad" d="M164.726.185H129.64v71.556c12.23-1.52 16.704-7.267 17.375-15.794V15.535h15.399c.522.037 1.231.074 1.641.11 7.308.89 11.969 4.08 12.454 18.724.074.816 0 1.817 0 2.521-.373 23.765-18.569 31.032-28.636 33.702h-.075c-.112.074-.224.11-.224.26v.666c0 .112.112.223.224.223h1.193c14.691 0 44.184-3.56 44.184-35.63v-.593C193.026 7.748 180.983.185 164.726.185"/><path fill="#509cc2" d="m90.75 15.535 8.315.074c.448.037.82 0 1.193 0 2.61 0 7.197 1.371 7.42 6.525v16.758c.149-.037.336-.111.522-.148a9 9 0 0 0 1.976-.705l.112-.074a.66.66 0 0 0 .261-.185c.075-.037.075 0 .149-.037l.112-.074c5.892-3.411 10.142-8.231 10.142-16.759 0-1.149-.074-2.261-.224-3.3a17 17 0 0 0-.484-2.372c-1.38-5.487-4.81-9.714-9.918-12.087a48 48 0 0 0-2.61-1.149C104.211.63 100.929.148 92.988.148H69.273c-.074 0-.037.186-.037.186.522.89 1.007 1.742 1.566 2.595 2.386 4.078 8.24 11.79 18.42 12.494.484.074 1.006.111 1.528.111M91.496 35.036H81.43c-3.99.148-4.4 3.819-4.437 4.523v10.79h15.026a571 571 0 0 0 5.034 7.34c1.715 2.41 3.281 4.709 3.952 5.562.671.89 2.946 4.856 12.454 7.192 3.84.927 8.128 1.075 9.732 1.224l.894.037-.074-.148s-1.603-2.225-3.617-5.71c-2.013-3.485-12.603-21.69-14.542-25.063-1.64-2.855-4.25-4.153-6.935-4.894h-.037c-1.902-.52-3.99-.742-5.593-.816-.186 0-.373 0-.56-.037z"/><path fill="#23529e" d="M63.345 35.036H48.99v12.05c0 2.632.372 6.08 2.013 8.12 1.305 1.63 1.64 1.853 1.752 1.853l-9.396.037c-2.125 0-4.064-.111-5.816-.296-5.37-.52-8.912-1.928-11.26-4.042-2.835-2.595-3.879-6.34-4.214-11.011l.037-6.043V15.46h43.215-.037c-2.312-5.636-6.898-9.195-10.366-11.234a27 27 0 0 0-3.281-1.558C47.647 1.001 42.39 0 37.543 0c-5.481 0-12.305 1.186-18.345 4.597-4.363 2.484-5.407 3.448-8.166 6.007-14.765 13.94-14.653 36.519 0 50.608 8.613 8.304 18.792 10.603 26.138 10.603 8.948 0 18.568-2.818 26.734-10.566.447-.408 1.64-1.706 2.386-2.484.485-.594.97-1.187 1.417-1.78V39.448c-.074-.815-.559-4.226-4.362-4.412"/></svg>