<svg width="252" height="96" viewBox="0 0 252 96" fill="none" xmlns="http://www.w3.org/2000/svg">
<g clip-path="url(#clip0_300_1589)">
<path d="M47.8074 0.306641H203.904C230.231 0.306641 251.601 21.6284 251.601 47.8945C251.601 74.2802 230.129 95.703 203.683 95.703H47.8074C21.4258 95.703 0 74.3353 0 48.0048C0 21.6835 21.4258 0.306641 47.8074 0.306641Z" fill="white"/>
<path d="M53.4634 50.3754C54.2832 54.263 51.1513 59.0052 48.0286 62.4792C57.8941 62.3689 65.9265 54.364 65.9265 44.4936C65.9265 34.6231 57.8572 26.508 47.8997 26.508C37.9421 26.508 29.8729 34.5587 29.8729 44.4936C29.8729 54.4284 37.9053 62.3689 47.7707 62.4792C44.648 59.0052 41.5161 54.263 42.336 50.3754C42.9992 46.4327 45.9376 45.1369 47.8997 45.1645C49.8525 45.1277 52.7909 46.4235 53.4634 50.3754ZM73.268 48.0043C73.268 61.9829 61.9103 73.3055 47.9089 73.3055C33.9075 73.3055 22.5498 61.9737 22.5498 48.0043C22.5498 34.0349 33.9075 22.7031 47.9089 22.7031C61.9103 22.7031 73.268 34.0349 73.268 48.0043Z" fill="#FF0000"/>
<path d="M151.316 40.6515C146.223 40.6515 144.039 43.3627 144.039 49.5938C144.003 55.834 146.315 58.6647 151.353 58.6647C156.392 58.6647 158.547 55.834 158.547 49.557C158.547 43.28 156.272 40.6423 151.316 40.6423M151.694 63.1496C147.871 63.1496 144.205 62.1938 141.93 60.5579C139.028 58.5176 137.435 54.6852 137.435 49.8051C137.435 40.6147 141.93 36.1758 151.27 36.1758C160.611 36.1758 165.106 40.6515 165.106 49.9981C165.106 58.6371 160.519 63.1496 151.694 63.1496Z" fill="#FF0000"/>
<path d="M182.82 57.9391C179.153 57.9391 177.947 57.7093 176.952 56.8822C175.994 56.0459 175.745 55.476 175.625 52.9027V39.6226C175.625 38.2716 174.483 37.178 173.065 37.1504H169.684V51.3771C169.684 55.8161 170.126 57.7828 171.646 59.5382C173.369 61.5509 175.92 62.4607 179.955 62.4607H187.941V57.9483H182.82V57.9391Z" fill="#FF0000"/>
<path d="M211.071 52.094L214.866 43.2161L218.661 52.094H211.071ZM218.136 37.1504H214.12C212.563 37.1872 211.246 38.0878 210.666 39.3653L200.607 62.4607H204.678C206.263 62.4516 207.626 61.5325 208.206 60.2275L209.791 56.5789H219.933L221.535 60.2642C222.134 61.5509 223.479 62.4516 225.045 62.4607H229.153L218.136 37.1596V37.1504Z" fill="#FF0000"/>
<path d="M194.205 37.1504C192.805 37.178 191.681 38.2532 191.653 39.5858V62.4516H194.96C196.37 62.4332 197.512 61.3579 197.539 60.0253V37.1504H194.205Z" fill="#FF0000"/>
<path d="M105.278 37.1498C103.721 37.1774 102.395 38.0872 101.814 39.3647L95.5966 54.9424L88.946 39.3923C88.3656 38.0872 87.0208 37.1774 85.4548 37.1498H81.3926L92.6121 62.451H95.8453C97.3652 62.4234 98.6732 61.5503 99.272 60.3096L109.773 37.1406H105.278V37.1498Z" fill="#FF0000"/>
<path d="M111.256 50.0083C111.256 52.4989 111.827 59.2079 117.916 61.6893C119.307 62.2316 120.854 62.4521 123.065 62.4521H133.124V57.9396H125.386C121.692 57.8937 119.666 57.1401 118.68 55.1274C118.303 54.3462 118.072 53.3904 117.962 52.2048V51.9843H132.488V47.628H117.962V47.4075C118.072 46.2219 118.293 45.2569 118.68 44.4849C119.666 42.4722 121.692 41.7278 125.386 41.6726H133.124V37.1602H123.065C120.854 37.1602 119.307 37.3807 117.916 37.923C111.827 40.4136 111.256 47.1134 111.256 49.604V50.0175V50.0083Z" fill="#FF0000"/>
</g>
<defs>
<clipPath id="clip0_300_1589">
<rect width="252" height="96" fill="white"/>
</clipPath>
</defs>
</svg>
