<svg width="224" height="104" viewBox="0 0 224 104" fill="none" xmlns="http://www.w3.org/2000/svg">
<path d="M123.757 34.9175C122.112 37.5472 120.474 40.1697 118.829 42.7994C116.954 45.8961 115.488 48.6407 114.432 51.0333L114.691 51.644H121.034C124.088 51.644 126.839 51.8165 129.304 52.1685C131.768 52.5206 134.06 53.1744 136.172 54.1157C134.821 53.8786 133.226 53.6989 131.373 53.584C129.526 53.469 127.773 53.4115 126.135 53.4115C123.319 53.4115 121.056 53.4834 119.36 53.6343C117.658 53.778 115.661 54.0869 113.383 54.5611C112.557 54.9132 110.89 58.1392 108.397 64.2392C105.904 70.3464 104.489 73.8599 104.13 74.8011L102.635 75.1532L101.924 73.127C101.924 72.5953 102.161 71.6325 102.635 70.2243C102.923 69.3405 103.074 68.6939 103.074 68.2844L108.088 55.6963C107.743 55.5886 107.19 55.5239 106.414 55.5239H105.358C104.597 55.5239 104.043 55.3155 103.691 54.8988C104.395 54.1947 105.423 53.663 106.773 53.3181C108.828 52.7865 109.992 52.4631 110.294 52.3482C111.824 49.7041 113.405 46.9595 115.043 44.1142C116.688 41.269 118.01 38.5603 119.008 35.9737C118.592 35.9162 117.981 35.8875 117.155 35.8875C116.508 35.8875 115.481 35.9019 114.073 35.9306C112.665 35.9593 111.609 35.9809 110.897 35.9809H109.403L109.317 33.9547C114.367 33.3512 118.146 32.9273 120.668 32.6471C125.539 32.1082 129.354 31.8352 132.113 31.8352C136.042 31.8352 139.067 32.0148 141.179 32.3669C144.642 32.956 147.43 34.041 149.542 35.6288L149.721 36.0599C145.202 34.6589 140.303 33.9547 135.015 33.9547C130.906 33.9547 127.155 34.2781 123.75 34.9247M151.41 66.6103C150.583 66.6749 148.773 68.0472 145.95 70.7488C143.141 73.4503 140.439 74.7939 137.846 74.7939C136.33 74.7939 134.994 74.5065 133.851 73.9173C132.709 73.3354 131.911 72.4947 131.473 71.4026C131.035 70.3177 130.812 69.2471 130.812 68.191C130.812 64.85 132.249 61.4156 135.123 57.8949C138.004 54.3743 140.877 52.614 143.751 52.614C149.269 52.614 152.02 55.3155 152.02 60.7114C152.02 61.8251 151.783 62.9962 151.309 64.2249L153.831 63.9159L153.781 64.8428C153.543 65.3745 153.5 65.8343 153.148 66.3013L151.403 66.5959L151.41 66.6103ZM145.863 64.5841C146.919 64.5841 147.739 63.8944 148.328 62.522C148.917 61.1353 149.204 59.8636 149.204 58.6925C149.204 57.3992 149.147 56.5514 149.032 56.1346C148.68 54.8413 147.595 54.1947 145.77 54.1947C144.599 54.1947 143.471 54.7982 142.379 55.9981C141.294 57.2052 140.755 58.4266 140.755 59.6553C140.755 61.1856 141.222 62.3783 142.156 63.2621C143.097 64.1386 144.326 64.5841 145.856 64.5841M133.887 66.9623C133.887 68.4855 134.225 69.7213 134.9 70.6626C135.575 71.5966 136.675 72.0636 138.198 72.0636C139.85 72.0636 141.265 71.5822 142.472 70.6123C143.672 69.6423 144.57 68.3706 145.159 66.7899C142.99 66.1361 141.122 65.1445 139.57 63.7938C138.011 62.443 137.235 60.7689 137.235 58.7715C136.236 60.1797 135.482 61.4443 134.95 62.5651C134.246 64.0884 133.894 65.5541 133.894 66.9623M173.523 66.6103C172.704 66.6749 170.879 68.0472 168.063 70.7488C165.247 73.4503 162.545 74.7939 159.966 74.7939C158.443 74.7939 157.1 74.5065 155.957 73.9173C154.815 73.3354 154.018 72.4947 153.579 71.4026C153.141 70.3177 152.926 69.2471 152.926 68.191C152.926 64.85 154.362 61.4156 157.229 57.8949C160.11 54.3743 162.984 52.614 165.857 52.614C171.368 52.614 174.134 55.3155 174.134 60.7114C174.134 61.8251 173.897 62.9962 173.422 64.2249L176.03 63.8872L175.887 64.85C175.642 65.3816 175.355 65.8702 175.003 66.3444L173.509 66.6103H173.523ZM167.977 64.5841C169.033 64.5841 169.859 63.8944 170.441 62.522C171.023 61.1353 171.317 59.8636 171.317 58.6925C171.317 57.3992 171.26 56.5514 171.138 56.1346C170.793 54.8413 169.708 54.1947 167.883 54.1947C166.712 54.1947 165.577 54.7982 164.492 55.9981C163.4 57.2052 162.861 58.4266 162.861 59.6553C162.861 61.1856 163.336 62.3783 164.27 63.2621C165.211 64.1386 166.439 64.5841 167.962 64.5841M155.993 66.9623C155.993 68.4855 156.331 69.7213 157.006 70.6626C157.674 71.5966 158.781 72.0636 160.304 72.0636C161.949 72.0636 163.372 71.5822 164.579 70.6123C165.771 69.6423 166.669 68.3706 167.265 66.7899C165.089 66.1361 163.235 65.1445 161.676 63.7938C160.124 62.443 159.341 60.7689 159.341 58.7715C158.343 60.1797 157.581 61.4443 157.049 62.5651C156.353 64.0884 156 65.5541 156 66.9623M195.888 73.9245C196.7 73.9676 199.954 71.8768 199.954 71.8768L201.549 73.9245C201.549 73.9245 198.589 75.8788 198.079 76.0225C197.246 76.2596 196.52 76.2956 195.565 76.3243C194.609 76.353 193.05 75.9363 191.936 75.0597C191.29 74.5352 190.32 73.2707 189.027 71.2733C187.209 72.272 185.83 73.0049 184.896 73.4791C183.136 74.3556 181.641 74.8011 180.413 74.8011C176.483 74.8011 174.522 72.8396 174.522 68.9094C174.522 65.8558 176.066 62.716 179.184 59.49C182.288 56.264 185.377 54.6545 188.423 54.6545C189.185 54.6545 190.126 54.7695 191.24 54.9994C192.353 55.2293 193.438 55.4449 194.494 55.6173C195.723 52.4488 197.31 49.1078 199.243 45.58C201.765 40.9385 204.322 37.1592 206.901 34.2278C210.07 30.5922 212.943 28.7672 215.53 28.7672C216.234 28.7672 216.737 28.9612 217.024 29.3492C217.319 29.73 217.462 30.6568 217.462 32.1226C217.462 35.9306 215.444 40.2703 211.392 45.1417C207.584 49.3089 203.762 53.4834 199.954 57.6435C195.852 62.5077 193.797 66.7396 193.797 70.3105C193.797 70.9571 194.013 71.6469 194.451 72.3798C194.896 73.1126 195.004 73.6731 195.902 73.9245M215.616 32.8123C215.616 32.2232 215.472 31.5837 215.171 30.8796C212.369 31.8783 209.042 35.3989 205.235 41.4414C201.772 47.0241 199.631 51.565 198.805 55.0856C201.743 52.5637 205.062 49.079 208.755 44.6172C213.331 39.0417 215.616 35.1115 215.616 32.8123ZM181.735 71.4601C184.846 71.4601 187.511 69.9081 189.738 66.7971C191.793 63.9734 192.82 60.9198 192.82 57.6363C192.82 57.2267 192.454 56.889 191.721 56.6232C190.988 56.3574 190.356 56.2209 189.839 56.2209H188.948C186.663 56.889 184.422 58.441 182.216 60.8982C180.025 63.3627 178.918 65.7553 178.918 68.0544C178.918 69.01 179.156 69.8219 179.623 70.4614C180.09 71.1224 180.794 71.4457 181.735 71.4457M204.638 72.5881C204.114 72.7103 203.553 72.9115 202.964 73.2132C202.375 73.5006 201.915 73.7377 201.556 73.9173C200.443 73.7377 199.961 73.1557 199.961 71.8696C204.365 69.6926 207.979 66.9839 210.968 64.0524C213.612 61.473 216.342 57.9237 219.158 53.4044C219.445 52.9373 220.056 52.6787 220.961 52.6499C221.874 52.6212 222.448 52.614 222.685 52.614L223.555 53.0595L224 53.936C223.935 54.051 223.706 54.5827 223.289 55.5239C223.116 55.876 222.966 56.4148 222.843 57.1477C222.728 57.8806 222.678 58.7715 222.678 59.8277V65.1086C222.678 68.6292 221.845 71.1368 220.2 72.6384C218.54 74.1257 215.882 74.8801 212.218 74.8801C210.882 74.8801 209.667 74.7005 208.554 74.3484C207.447 74.0036 206.147 73.4144 204.631 72.5881M210.968 73.2132H212.024C212.44 73.2132 212.994 73.1486 213.698 73.0336C215.752 72.4444 217.132 70.7416 217.836 67.9323C218.188 66.4666 218.368 64.1386 218.368 60.9773C217.786 61.1497 215.745 62.7663 212.254 65.8127C208.762 68.8663 207.009 70.6266 207.009 71.0865C207.009 71.7978 207.455 72.3295 208.331 72.6743C209.215 73.0336 210.084 73.206 210.968 73.206" fill="#289042"/>
<path fill-rule="evenodd" clip-rule="evenodd" d="M91.557 0.0130615C82.3467 5.2868 66.8789 2.96607 60.4202 18.1766C67.7554 12.9819 71.6852 10.2229 79.9256 8.26137C72.9281 11.6886 67.4321 14.3686 63.6747 16.9623C69.7239 19.0028 85.6228 16.7827 91.5642 0.0130615" fill="#289042"/>
<path fill-rule="evenodd" clip-rule="evenodd" d="M57.7835 67.2641C55.5635 65.0727 53.595 62.8597 51.8852 60.6252C50.1538 58.3907 48.6738 56.113 47.4237 53.7851C44.435 53.9719 41.7625 55.1646 39.4204 57.3776C37.0711 59.5834 35.663 62.1915 35.2104 65.1876C34.8009 67.9323 35.2894 70.1165 36.6975 71.7331C38.0913 73.3497 40.1963 74.1688 42.9982 74.1688C45.4265 74.1688 47.9194 73.5868 50.4699 72.3869C53.0275 71.1942 55.463 69.4842 57.7907 67.2641H57.7835ZM68.2295 72.9545C68.4307 71.5966 68.1792 69.9656 67.4608 68.0975C66.7495 66.2079 65.6863 64.2967 64.235 62.3639C63.5597 63.2764 62.9347 64.0811 62.3599 64.7637C61.7852 65.4319 61.1889 66.0857 60.5854 66.7108C61.9289 68.1909 63.2149 69.4339 64.4865 70.4614C65.7437 71.4888 66.9866 72.3151 68.2295 72.9474V72.9545ZM59.4503 65.6475C60.2549 64.9146 60.9733 64.1602 61.6128 63.4058C62.2737 62.6226 62.8556 61.8251 63.3226 60.9772C61.8067 59.1882 60.1615 57.7368 58.3511 56.6519C56.555 55.5598 54.6296 54.8341 52.5677 54.4677C53.2286 56.5082 54.1195 58.4625 55.2618 60.3162C56.3969 62.1628 57.7835 63.9446 59.4503 65.6403V65.6475ZM58.9402 68.27C55.6713 71.1439 52.503 73.2563 49.4281 74.6071C46.3532 75.9578 43.2209 76.626 40.0095 76.626C36.482 76.626 33.716 75.5627 31.726 73.4359C29.7215 71.302 28.96 68.6579 29.427 65.4966C29.9874 61.8251 31.8912 58.6421 35.1601 55.9406C38.4289 53.2391 42.2654 51.6943 46.6837 51.3351C43.2855 40.8522 51.6553 23.3641 59.5652 18.464C54.9385 23.63 49.7514 36.4335 50.5345 45.9104C50.6854 47.757 51.0518 49.5891 51.6122 51.4213C53.9686 52.0248 56.2173 52.9876 58.3439 54.324C60.4848 55.6532 62.4749 57.3345 64.314 59.3678C65.3414 57.3417 67.274 53.1457 69.9106 46.3056C69.0916 51.3854 66.922 57.5357 65.3773 60.6683C67.4105 63.7937 68.9839 66.6031 70.1118 69.0747C71.2469 71.5463 71.9654 73.7449 72.2599 75.692L71.9654 76.08C70.3633 76.0584 68.5672 75.4405 66.5484 74.2335C64.5368 73.0264 62.0007 71.0577 58.9474 68.27H58.9402ZM65.4779 30.1108H101.335V39.523H88.0295V76.0153H78.618V39.523H62.8628L65.4779 30.1108ZM0 30.1108H39.0683L35.9072 39.523H22.7168V76.0153H13.3054V39.523H0V30.1108Z" fill="#E20917"/>
<path d="M206.381 97.8151C206.481 98.4905 206.747 99.0437 207.156 99.4605C207.573 99.8844 208.062 100.093 208.636 100.093C209.039 100.093 209.412 99.9706 209.75 99.7407C210.088 99.5108 210.346 99.1874 210.547 98.7563H211.941C211.625 99.6617 211.18 100.351 210.619 100.826C210.045 101.3 209.391 101.544 208.644 101.544C208.134 101.544 207.667 101.436 207.25 101.228C206.833 101.02 206.452 100.696 206.108 100.272C205.791 99.8772 205.533 99.4174 205.36 98.8857C205.174 98.354 205.087 97.8151 205.087 97.2619C205.087 96.7086 205.166 96.1626 205.332 95.6596C205.497 95.1639 205.741 94.7112 206.064 94.3017C206.402 93.8634 206.79 93.5257 207.214 93.303C207.638 93.0803 208.112 92.9725 208.615 92.9725C209.211 92.9725 209.779 93.1377 210.296 93.4682C210.813 93.7987 211.237 94.2658 211.582 94.8621C211.776 95.2285 211.927 95.6381 212.02 96.0764C212.114 96.5147 212.171 97.0248 212.171 97.578V97.8079H206.395L206.381 97.8151ZM210.799 96.5075C210.648 95.8393 210.382 95.3148 210.001 94.9483C209.621 94.5891 209.175 94.3951 208.644 94.3951C208.112 94.3951 207.638 94.5891 207.235 94.9555C206.833 95.3363 206.56 95.8465 206.416 96.5003H210.792L210.799 96.5075ZM202.357 93.2168H203.579V101.329H202.357V93.2168ZM203.579 92.2612H202.357V90.5871H203.579V92.2612ZM196.502 98.706H197.666C197.666 99.13 197.767 99.4892 197.968 99.7622C198.169 100.05 198.42 100.179 198.722 100.179C199.024 100.179 199.247 100.071 199.433 99.87C199.62 99.6545 199.706 99.3958 199.706 99.0725C199.706 98.7851 199.634 98.5408 199.512 98.3468C199.376 98.1456 199.16 97.9804 198.873 97.8439C198.78 97.7864 198.636 97.7217 198.449 97.6427C197.968 97.4271 197.652 97.2619 197.522 97.1325C197.278 96.8954 197.098 96.6368 196.983 96.3422C196.861 96.0548 196.804 95.7099 196.804 95.3291C196.804 94.6753 196.998 94.1149 197.386 93.6479C197.774 93.1808 198.248 92.9581 198.808 92.9581C199.397 92.9581 199.857 93.1593 200.209 93.5688C200.554 93.9712 200.741 94.546 200.777 95.2788H199.591C199.57 94.9699 199.484 94.74 199.34 94.5747C199.196 94.4023 199.002 94.3232 198.758 94.3232C198.542 94.3232 198.356 94.4166 198.205 94.5963C198.061 94.7759 197.982 94.9986 197.982 95.2645C197.982 95.7171 198.32 96.0835 198.981 96.3709C199.16 96.4572 199.318 96.5218 199.419 96.5721C199.943 96.8236 200.324 97.1397 200.54 97.5134C200.762 97.8798 200.87 98.3755 200.87 99.0006C200.87 99.7335 200.669 100.344 200.252 100.826C199.836 101.307 199.304 101.551 198.679 101.551C198.054 101.551 197.522 101.293 197.142 100.79C196.754 100.28 196.538 99.597 196.495 98.706M190.166 98.2031L189.138 101.329H187.752L191.293 90.5871H192.579L196.129 101.329H194.692L193.693 98.2031H190.166ZM193.212 96.6871L191.933 92.606L190.633 96.6871H193.212ZM185.625 90.5871H186.889V92.1893C186.889 92.8 186.789 93.2671 186.595 93.576C186.401 93.885 186.07 94.1005 185.625 94.2227V93.2527C185.783 93.2024 185.898 93.1305 185.963 93.0156C186.027 92.9006 186.063 92.7426 186.063 92.527V92.3905H185.632V90.5943L185.625 90.5871ZM182.406 90.5871H183.621V101.329H182.406V90.5871ZM172.212 97.8079C172.312 98.4833 172.578 99.0366 172.988 99.4533C173.405 99.8772 173.9 100.086 174.468 100.086C174.87 100.086 175.237 99.9634 175.574 99.7335C175.912 99.5036 176.178 99.1803 176.379 98.7492H177.765C177.456 99.6545 177.011 100.344 176.443 100.818C175.869 101.293 175.215 101.537 174.461 101.537C173.951 101.537 173.491 101.429 173.067 101.221C172.643 101.012 172.269 100.689 171.925 100.265C171.608 99.87 171.357 99.4102 171.17 98.8785C170.991 98.3468 170.904 97.8079 170.904 97.2547C170.904 96.7015 170.983 96.1554 171.149 95.6525C171.314 95.1567 171.551 94.704 171.874 94.2945C172.219 93.8562 172.607 93.5185 173.031 93.2958C173.455 93.0731 173.922 92.9653 174.432 92.9653C175.035 92.9653 175.596 93.1305 176.113 93.4611C176.63 93.7916 177.061 94.2586 177.399 94.8549C177.593 95.2214 177.744 95.6309 177.837 96.0692C177.931 96.5075 177.981 97.0176 177.981 97.5708V97.8008H172.205L172.212 97.8079ZM176.63 96.5003C176.487 95.8321 176.214 95.3076 175.84 94.9412C175.452 94.5819 175.007 94.3879 174.489 94.3879C173.936 94.3879 173.469 94.5819 173.074 94.9483C172.679 95.3291 172.406 95.8393 172.255 96.4931H176.63V96.5003ZM168.203 101.329V100.33C167.894 100.718 167.535 101.02 167.154 101.214C166.766 101.408 166.357 101.515 165.904 101.515C164.877 101.515 164.022 101.106 163.339 100.287C162.664 99.4748 162.319 98.4618 162.319 97.2331C162.319 96.6584 162.405 96.1195 162.571 95.6093C162.743 95.092 162.98 94.6537 163.303 94.2586C163.648 93.8347 164.022 93.5185 164.431 93.3173C164.841 93.109 165.308 93.0156 165.832 93.0156C166.299 93.0156 166.723 93.109 167.133 93.3102C167.528 93.497 167.887 93.7987 168.217 94.1939V90.5943H169.453V101.336H168.203V101.329ZM163.591 97.226C163.591 98.045 163.821 98.7348 164.28 99.288C164.74 99.8485 165.301 100.121 165.962 100.121C166.572 100.121 167.104 99.8413 167.571 99.2808C168.031 98.7276 168.261 98.0738 168.261 97.3265C168.261 96.529 168.031 95.8536 167.571 95.2788C167.118 94.7112 166.572 94.4238 165.94 94.4238C165.308 94.4238 164.74 94.6969 164.28 95.2357C163.821 95.7746 163.591 96.4356 163.591 97.226ZM153.878 98.706H155.041C155.041 99.13 155.142 99.4892 155.343 99.7622C155.551 100.05 155.796 100.179 156.097 100.179C156.399 100.179 156.622 100.071 156.802 99.87C156.988 99.6545 157.089 99.3958 157.089 99.0725C157.089 98.7851 157.024 98.5408 156.888 98.3468C156.751 98.1456 156.543 97.9804 156.256 97.8439C156.155 97.7864 156.011 97.7217 155.832 97.6427C155.343 97.4271 155.034 97.2619 154.905 97.1325C154.661 96.8954 154.481 96.6368 154.359 96.3422C154.244 96.0548 154.179 95.7099 154.179 95.3291C154.179 94.6753 154.38 94.1149 154.768 93.6479C155.156 93.1808 155.631 92.9581 156.191 92.9581C156.78 92.9581 157.247 93.1593 157.585 93.5688C157.929 93.9712 158.116 94.546 158.152 95.2788H156.974C156.952 94.9699 156.866 94.74 156.723 94.5747C156.579 94.4023 156.385 94.3232 156.133 94.3232C155.918 94.3232 155.731 94.4166 155.587 94.5963C155.444 94.7759 155.365 94.9986 155.365 95.2645C155.365 95.7171 155.695 96.0835 156.363 96.3709C156.55 96.4572 156.694 96.5218 156.802 96.5721C157.326 96.8236 157.7 97.1397 157.922 97.5134C158.145 97.8798 158.26 98.3755 158.26 99.0006C158.26 99.7335 158.052 100.344 157.635 100.826C157.218 101.307 156.694 101.551 156.062 101.551C155.429 101.551 154.912 101.293 154.517 100.79C154.129 100.28 153.921 99.597 153.878 98.706ZM147.067 97.2331C147.067 96.2488 146.952 95.5231 146.722 95.0777C146.485 94.6322 146.111 94.4095 145.594 94.4095C145.077 94.4095 144.667 94.6322 144.416 95.0848C144.164 95.5375 144.035 96.2344 144.035 97.1757V101.329H142.864V93.2168H143.97V94.1652C144.2 93.8059 144.452 93.5329 144.739 93.3533C145.026 93.1737 145.364 93.0802 145.731 93.0802C146.226 93.0802 146.636 93.188 146.973 93.4179C147.304 93.6407 147.577 93.9999 147.785 94.4741C148.001 94.0071 148.281 93.655 148.626 93.4323C148.978 93.1952 149.402 93.0802 149.912 93.0802C150.688 93.0802 151.306 93.3748 151.773 93.9784C152.24 94.5747 152.469 95.3722 152.469 96.3638V101.321H151.227V96.5937C151.227 95.9039 151.104 95.3651 150.839 94.9843C150.587 94.5963 150.228 94.4095 149.768 94.4095C149.236 94.4095 148.848 94.6106 148.619 95.0202C148.382 95.4225 148.267 96.1195 148.267 97.0894V101.329H147.067V97.2331ZM140.946 101.329H139.76V100.43C139.516 100.797 139.243 101.07 138.934 101.25C138.632 101.429 138.295 101.523 137.914 101.523C137.045 101.523 136.377 101.199 135.902 100.567C135.428 99.9347 135.184 99.0509 135.184 97.8942V93.224H136.427V97.4774C136.427 98.3468 136.556 99.0078 136.815 99.4389C137.081 99.8772 137.469 100.1 137.993 100.1C138.316 100.1 138.604 100.007 138.862 99.8269C139.114 99.6473 139.315 99.3886 139.466 99.0509C139.566 98.8426 139.624 98.5983 139.667 98.3181C139.703 98.0307 139.724 97.5708 139.724 96.9386V93.224H140.946V101.336V101.329ZM132.835 101.329H131.606V94.4741H130.787V93.2096H131.57V92.9653C131.57 92.1318 131.764 91.5067 132.159 91.09C132.547 90.6661 133.129 90.4506 133.905 90.4506V91.8085H133.797C133.431 91.8085 133.165 91.9019 133.007 92.1031C132.856 92.2971 132.777 92.6276 132.777 93.0946V93.2096H133.905V94.4741H132.835V101.329ZM127.942 101.329H126.706V93.2168H127.87V94.1508C128.071 93.7916 128.301 93.5185 128.567 93.3533C128.833 93.1737 129.135 93.0802 129.494 93.0802V94.6035C128.941 94.6538 128.546 94.8477 128.309 95.1926C128.064 95.5303 127.949 96.0692 127.949 96.8164V101.329H127.942ZM123.596 101.329V100.33C123.28 100.718 122.927 101.02 122.54 101.214C122.144 101.408 121.735 101.515 121.289 101.515C120.262 101.515 119.4 101.106 118.717 100.287C118.035 99.4748 117.697 98.4618 117.697 97.2331C117.697 96.6584 117.783 96.1195 117.956 95.6093C118.128 95.092 118.373 94.6537 118.682 94.2586C119.034 93.8347 119.407 93.5185 119.809 93.3173C120.226 93.109 120.7 93.0156 121.218 93.0156C121.685 93.0156 122.13 93.109 122.518 93.3102C122.913 93.497 123.28 93.7987 123.596 94.1939V93.2168H124.846V101.329H123.596ZM118.983 97.226C118.983 98.045 119.213 98.7348 119.673 99.288C120.126 99.8485 120.693 100.121 121.361 100.121C121.965 100.121 122.496 99.8413 122.956 99.2808C123.423 98.7276 123.653 98.0738 123.653 97.3265C123.653 96.529 123.43 95.8536 122.963 95.2788C122.504 94.7112 121.965 94.4238 121.325 94.4238C120.686 94.4238 120.126 94.6969 119.666 95.2357C119.206 95.7746 118.976 96.4356 118.976 97.226M112.884 101.329H111.583V90.5871H113.688C114.285 90.5871 114.737 90.6158 115.039 90.6877C115.348 90.7523 115.621 90.8673 115.858 91.0254C116.239 91.2912 116.533 91.6648 116.763 92.139C116.986 92.6276 117.094 93.1521 117.094 93.7197C117.094 94.7184 116.806 95.5159 116.239 96.1051C115.671 96.6943 114.895 96.996 113.926 96.996H112.877V101.321L112.884 101.329ZM112.884 95.5806H113.846C114.522 95.5806 115.01 95.4369 115.319 95.1567C115.621 94.8765 115.779 94.431 115.779 93.8131C115.779 93.1952 115.621 92.7497 115.312 92.4623C115.003 92.1678 114.522 92.0169 113.89 92.0169H112.891V95.5806H112.884ZM102.732 98.706H103.896C103.896 99.13 103.997 99.4892 104.198 99.7622C104.406 100.05 104.651 100.179 104.959 100.179C105.247 100.179 105.484 100.071 105.671 99.87C105.858 99.6545 105.944 99.3958 105.944 99.0725C105.944 98.7851 105.879 98.5408 105.75 98.3468C105.613 98.1456 105.398 97.9804 105.11 97.8439C105.01 97.7864 104.866 97.7217 104.679 97.6427C104.198 97.4271 103.889 97.2619 103.753 97.1325C103.515 96.8954 103.329 96.6368 103.214 96.3422C103.099 96.0548 103.034 95.7099 103.034 95.3291C103.034 94.6753 103.235 94.1149 103.616 93.6479C104.011 93.1808 104.478 92.9581 105.046 92.9581C105.613 92.9581 106.095 93.1593 106.447 93.5688C106.791 93.9712 106.978 94.546 107.014 95.2788H105.836C105.814 94.9699 105.721 94.74 105.585 94.5747C105.434 94.4023 105.24 94.3232 104.995 94.3232C104.773 94.3232 104.593 94.4166 104.442 94.5963C104.299 94.7759 104.227 94.9986 104.227 95.2645C104.227 95.7171 104.557 96.0835 105.225 96.3709C105.412 96.4572 105.556 96.5218 105.671 96.5721C106.195 96.8236 106.569 97.1397 106.791 97.5134C107.014 97.8798 107.122 98.3755 107.122 99.0006C107.122 99.7335 106.914 100.344 106.497 100.826C106.087 101.307 105.563 101.551 104.931 101.551C104.299 101.551 103.781 101.293 103.393 100.79C102.998 100.28 102.79 99.597 102.747 98.706M95.9647 97.8151C96.0725 98.4905 96.3311 99.0437 96.7406 99.4605C97.1501 99.8844 97.6458 100.093 98.2206 100.093C98.6229 100.093 98.9893 99.9706 99.327 99.7407C99.6646 99.5108 99.9304 99.1874 100.124 98.7563H101.511C101.202 99.6617 100.757 100.351 100.196 100.826C99.6215 101.3 98.9678 101.544 98.2134 101.544C97.7033 101.544 97.2363 101.436 96.8196 101.228C96.3958 101.02 96.0222 100.696 95.6773 100.272C95.354 99.8772 95.1098 99.4174 94.923 98.8857C94.7362 98.354 94.65 97.8151 94.65 97.2619C94.65 96.7086 94.7362 96.1626 94.8942 95.6596C95.0595 95.1639 95.3037 94.7112 95.6199 94.3017C95.9647 93.8634 96.3455 93.5257 96.7765 93.303C97.2076 93.0803 97.6746 92.9725 98.1775 92.9725C98.781 92.9725 99.3413 93.1377 99.8586 93.4682C100.383 93.7987 100.8 94.2658 101.145 94.8621C101.339 95.2285 101.489 95.6381 101.583 96.0764C101.676 96.5147 101.727 97.0248 101.727 97.578V97.8079H95.9432L95.9647 97.8151ZM100.39 96.5075C100.232 95.8393 99.9735 95.3148 99.5856 94.9483C99.2048 94.5891 98.7594 94.3951 98.235 94.3951C97.6889 94.3951 97.222 94.5891 96.8196 94.9555C96.4173 95.3363 96.1515 95.8465 96.0006 96.5003H100.383L100.39 96.5075ZM91.9415 90.5943H93.17V101.336H91.9415V90.5943ZM83.1622 98.706H84.3189C84.3189 99.13 84.4267 99.4892 84.6278 99.7622C84.829 100.05 85.0805 100.179 85.3894 100.179C85.6768 100.179 85.9138 100.071 86.0934 99.87C86.2802 99.6545 86.3664 99.3958 86.3664 99.0725C86.3664 98.7851 86.3018 98.5408 86.1725 98.3468C86.036 98.1456 85.8276 97.9804 85.5403 97.8439C85.4397 97.7864 85.296 97.7217 85.1092 97.6427C84.6278 97.4271 84.3189 97.2619 84.1896 97.1325C83.9453 96.8954 83.7585 96.6368 83.6364 96.3422C83.5215 96.0548 83.464 95.7099 83.464 95.3291C83.464 94.6753 83.658 94.1149 84.0459 93.6479C84.4267 93.1808 84.908 92.9581 85.4684 92.9581C86.0288 92.9581 86.5173 93.1593 86.8622 93.5688C87.207 93.9712 87.3938 94.546 87.4297 95.2788H86.2443C86.2228 94.9699 86.1366 94.74 85.9929 94.5747C85.8492 94.4023 85.648 94.3232 85.4109 94.3232C85.1882 94.3232 85.0014 94.4166 84.8577 94.5963C84.7141 94.7759 84.635 94.9986 84.635 95.2645C84.635 95.7171 84.9655 96.0835 85.6337 96.3709C85.8276 96.4572 85.9641 96.5218 86.0791 96.5721C86.6035 96.8236 86.9771 97.1397 87.1926 97.5134C87.4225 97.8798 87.5375 98.3755 87.5375 99.0006C87.5375 99.7335 87.322 100.344 86.9125 100.826C86.4958 101.307 85.9713 101.551 85.3391 101.551C84.7069 101.551 84.1896 101.293 83.8016 100.79C83.4065 100.28 83.191 99.597 83.1622 98.706ZM81.7254 101.329H80.5471V100.43C80.2885 100.797 80.0227 101.07 79.7209 101.25C79.412 101.429 79.0744 101.523 78.6936 101.523C77.8315 101.523 77.1633 101.199 76.6892 100.567C76.2078 99.9347 75.9851 99.0509 75.9851 97.8942V93.224H77.2136V97.4774C77.2136 98.3468 77.3501 99.0078 77.6088 99.4389C77.8746 99.8772 78.2697 100.1 78.787 100.1C79.1175 100.1 79.4048 100.007 79.6563 99.8269C79.9149 99.6473 80.1161 99.3886 80.2598 99.0509C80.3532 98.8426 80.4106 98.5983 80.4538 98.3181C80.4897 98.0307 80.5184 97.5708 80.5184 96.9386V93.224H81.7397V101.336L81.7254 101.329ZM67.4501 97.2763C67.4501 96.7015 67.5292 96.1698 67.6944 95.6596C67.8596 95.1639 68.1039 94.7112 68.42 94.3161C68.7649 93.8778 69.16 93.5401 69.5911 93.3102C70.0221 93.0731 70.4747 92.9581 70.9417 92.9581C71.4446 92.9581 71.8972 93.0659 72.3283 93.2742C72.7522 93.4826 73.1401 93.7987 73.485 94.2083C73.8226 94.6178 74.0813 95.0777 74.2609 95.5878C74.4405 96.1051 74.5339 96.6296 74.5339 97.1757C74.5339 97.7217 74.4477 98.275 74.2824 98.7995C74.1172 99.324 73.8729 99.791 73.5784 100.179C73.2335 100.632 72.8312 100.976 72.4073 101.214C71.9691 101.451 71.5021 101.566 71.0207 101.566C70.5394 101.566 70.0508 101.458 69.627 101.242C69.2031 101.027 68.8223 100.711 68.4847 100.294C68.1614 99.8988 67.9171 99.4389 67.7375 98.9072C67.5507 98.3827 67.4645 97.8439 67.4645 97.2906M68.7433 97.2763C68.7433 98.0882 68.966 98.7707 69.3971 99.3096C69.8353 99.8556 70.3813 100.121 71.0279 100.121C71.6745 100.121 72.1918 99.8556 72.6228 99.3024C73.0539 98.7635 73.2622 98.081 73.2622 97.2691C73.2622 96.4572 73.0467 95.7674 72.6228 95.2285C72.1918 94.6897 71.653 94.4238 71.0064 94.4238C70.3598 94.4238 69.8281 94.6969 69.3971 95.2357C68.966 95.7818 68.7433 96.4572 68.7433 97.2763ZM64.3609 101.343V94.5532H63.391V93.224H64.3609V90.6014H65.5966V93.224H66.5665V94.5532H65.5966V101.343H64.3609ZM58.168 101.343H56.9323V93.2311H58.089V94.1652C58.2901 93.8059 58.5272 93.5329 58.793 93.3676C59.0517 93.188 59.3678 93.0946 59.7126 93.0946V94.6178C59.1594 94.6681 58.7643 94.8621 58.5272 95.207C58.2901 95.5447 58.168 96.0835 58.168 96.8308V101.343ZM49.6617 97.8295C49.7623 98.5049 50.0281 99.0581 50.4305 99.4748C50.8472 99.8988 51.3429 100.107 51.9104 100.107C52.3128 100.107 52.6935 99.985 53.024 99.7551C53.3545 99.5251 53.6275 99.2018 53.8287 98.7707H55.2224C54.9063 99.676 54.4609 100.366 53.9005 100.84C53.3329 101.314 52.672 101.558 51.9176 101.558C51.4075 101.558 50.9477 101.451 50.5239 101.242C50.1 101.034 49.7264 100.711 49.3887 100.287C49.0654 99.8916 48.814 99.4317 48.6344 98.9C48.4548 98.3684 48.3614 97.8295 48.3614 97.2763C48.3614 96.723 48.4476 96.177 48.6128 95.674C48.7709 95.1782 49.0152 94.7256 49.3313 94.3161C49.6761 93.8778 50.0641 93.5401 50.4879 93.3173C50.9118 93.0946 51.3788 92.9868 51.8889 92.9868C52.4924 92.9868 53.0527 93.1521 53.5772 93.4826C54.0873 93.8131 54.5183 94.2801 54.856 94.8765C55.0572 95.2429 55.208 95.6525 55.3014 96.0907C55.3948 96.529 55.4451 97.0392 55.4451 97.5924V97.8223H49.6689L49.6617 97.8295ZM54.0801 96.5218C53.922 95.8536 53.6634 95.3291 53.2826 94.9627C52.9091 94.6035 52.4493 94.4095 51.9248 94.4095C51.4003 94.4095 50.919 94.6035 50.5167 94.9699C50.1215 95.3507 49.8485 95.8608 49.6977 96.5147H54.0801V96.5218ZM45.8828 101.35H44.6471V93.2383H45.8038V94.1724C46.0121 93.8131 46.242 93.5401 46.5078 93.3748C46.7736 93.1952 47.0826 93.1018 47.4274 93.1018V94.625C46.8742 94.6753 46.4791 94.8693 46.2348 95.2142C45.9977 95.5519 45.8828 96.0907 45.8828 96.838V101.35ZM36.0834 97.2978C36.0834 96.723 36.1696 96.1913 36.3348 95.6812C36.4929 95.1854 36.7371 94.7328 37.0604 94.3376C37.4125 93.8993 37.7932 93.5616 38.2315 93.3317C38.6697 93.0946 39.1152 92.9797 39.5821 92.9797C40.0779 92.9797 40.5377 93.0874 40.9687 93.2958C41.3926 93.5042 41.7805 93.8203 42.1254 94.2298C42.4702 94.6394 42.7217 95.0992 42.9085 95.6093C43.0953 96.1267 43.1743 96.6512 43.1743 97.1972C43.1743 97.7433 43.0881 98.2965 42.9228 98.821C42.7504 99.3455 42.5133 99.8125 42.2116 100.201C41.8668 100.653 41.4788 100.998 41.0334 101.235C40.5951 101.472 40.1353 101.587 39.6468 101.587C39.1583 101.587 38.6841 101.479 38.2602 101.264C37.8292 101.048 37.4484 100.732 37.1107 100.315C36.7874 99.9203 36.5432 99.4605 36.3564 98.9288C36.1768 98.4043 36.0834 97.8654 36.0834 97.3122M37.3622 97.2978C37.3622 98.1097 37.5849 98.7923 38.016 99.3311C38.4542 99.8772 38.993 100.143 39.6396 100.143C40.2862 100.143 40.8107 99.8772 41.2345 99.324C41.6584 98.7851 41.8811 98.1025 41.8811 97.2906C41.8811 96.4787 41.6656 95.789 41.2345 95.2501C40.8107 94.7112 40.2718 94.4454 39.6324 94.4454C38.993 94.4454 38.447 94.7184 38.016 95.2573C37.5849 95.8033 37.3622 96.4787 37.3622 97.2978ZM33.3821 90.623H34.5962V101.364H33.3821V90.623ZM25.9391 100.387V103.987H24.7034V93.2455H25.9463V94.2442C26.2552 93.8634 26.6144 93.5688 27.0024 93.3748C27.3903 93.1737 27.7999 93.0731 28.2525 93.0731C29.2798 93.0731 30.1419 93.4754 30.8245 94.2873C31.507 95.0992 31.8446 96.1195 31.8446 97.3481C31.8446 97.9157 31.7584 98.4546 31.5932 98.9647C31.4207 99.4748 31.1765 99.9275 30.8532 100.323C30.5155 100.754 30.1348 101.07 29.7252 101.271C29.3157 101.472 28.8488 101.58 28.3243 101.58C27.8573 101.58 27.4263 101.479 27.0311 101.278C26.636 101.077 26.2696 100.783 25.9391 100.387ZM25.9032 97.2547C25.9032 98.0522 26.1259 98.7348 26.5785 99.3024C27.0383 99.87 27.5771 100.157 28.2165 100.157C28.8559 100.157 29.4091 99.8844 29.8689 99.3383C30.3359 98.7923 30.5658 98.1384 30.5658 97.3553C30.5658 96.5362 30.3287 95.8464 29.8761 95.2932C29.4163 94.7328 28.8631 94.4526 28.2022 94.4526C27.5915 94.4526 27.0599 94.7328 26.5929 95.2932C26.1331 95.8536 25.9032 96.5003 25.9032 97.2547ZM22.2607 101.357L20.673 98.2893L19.0134 101.357H17.6412L19.9546 97.1469L17.907 93.2455H19.2864L20.7161 96.0333L22.1817 93.2455H23.6114L21.4345 97.0894L23.6329 101.357H22.2536H22.2607ZM16.542 101.357H11.8291V90.6158H16.542V92.0456H13.1438V95.2501H16.542V96.6512H13.1438V99.87H16.542V101.35V101.357Z" fill="#E20917"/>
</svg>
